<svg width="502" height="393" viewBox="0 0 502 393" fill="none" xmlns="http://www.w3.org/2000/svg">
<circle cx="175" cy="20" r="20" fill="#F5F5F5"/>
<circle cx="72" cy="112" r="20" fill="#F5F5F5"/>
<circle cx="300" cy="112" r="20" fill="#F5F5F5"/>
<circle cx="404" cy="112" r="20" fill="#F5F5F5"/>
<circle cx="175" cy="214" r="20" fill="#F5F5F5"/>
<circle cx="300" cy="213" r="20" fill="#F5F5F5"/>
<path d="M176.5 22V216" stroke="#F5F5F5" stroke-width="10"/>
<path d="M300 106V216" stroke="#F5F5F5" stroke-width="10"/>
<path d="M77 114L409 111.969" stroke="#F5F5F5" stroke-width="10"/>
<path d="M16.1244 320H3.23375V283.636H16.2309C19.8886 283.636 23.0373 284.364 25.6769 285.82C28.3166 287.264 30.3467 289.342 31.7671 292.053C33.1994 294.763 33.9156 298.007 33.9156 301.783C33.9156 305.571 33.1994 308.826 31.7671 311.548C30.3467 314.271 28.3048 316.36 25.6414 317.816C22.9899 319.272 19.8176 320 16.1244 320ZM10.922 313.413H15.8048C18.0775 313.413 19.9892 313.01 21.5399 312.205C23.1024 311.388 24.2742 310.128 25.0555 308.423C25.8486 306.707 26.2451 304.493 26.2451 301.783C26.2451 299.096 25.8486 296.9 25.0555 295.195C24.2742 293.491 23.1083 292.236 21.5576 291.431C20.007 290.626 18.0953 290.224 15.8225 290.224H10.922V313.413ZM40.9687 320V292.727H48.5326V320H40.9687ZM44.7684 289.212C43.6439 289.212 42.6791 288.839 41.8742 288.093C41.0811 287.335 40.6846 286.43 40.6846 285.376C40.6846 284.335 41.0811 283.441 41.8742 282.695C42.6791 281.938 43.6439 281.559 44.7684 281.559C45.8929 281.559 46.8517 281.938 47.6448 282.695C48.4497 283.441 48.8522 284.335 48.8522 285.376C48.8522 286.43 48.4497 287.335 47.6448 288.093C46.8517 288.839 45.8929 289.212 44.7684 289.212ZM78.7835 300.504L71.8588 300.93C71.7404 300.339 71.4859 299.806 71.0953 299.332C70.7046 298.847 70.1897 298.462 69.5505 298.178C68.9231 297.882 68.1715 297.734 67.2955 297.734C66.1237 297.734 65.1353 297.983 64.3303 298.48C63.5254 298.965 63.123 299.616 63.123 300.433C63.123 301.084 63.3834 301.635 63.9042 302.085C64.425 302.534 65.3187 302.895 66.5853 303.168L71.5214 304.162C74.1729 304.706 76.1497 305.582 77.4518 306.79C78.7539 307.997 79.4049 309.583 79.4049 311.548C79.4049 313.336 78.8782 314.904 77.8247 316.254C76.783 317.603 75.3507 318.656 73.5278 319.414C71.7167 320.16 69.6275 320.533 67.26 320.533C63.6497 320.533 60.7733 319.781 58.6308 318.278C56.5001 316.763 55.2513 314.703 54.8843 312.099L62.324 311.708C62.5489 312.809 63.0934 313.649 63.9575 314.229C64.8216 314.798 65.9284 315.082 67.2778 315.082C68.6035 315.082 69.6689 314.827 70.4738 314.318C71.2906 313.797 71.7049 313.129 71.7167 312.312C71.7049 311.625 71.4149 311.063 70.8467 310.625C70.2785 310.175 69.4026 309.832 68.2188 309.595L63.4958 308.654C60.8325 308.121 58.8498 307.198 57.5477 305.884C56.2574 304.57 55.6123 302.895 55.6123 300.859C55.6123 299.107 56.0858 297.598 57.0328 296.332C57.9916 295.065 59.3351 294.089 61.0633 293.402C62.8034 292.715 64.8393 292.372 67.1713 292.372C70.6159 292.372 73.3266 293.1 75.3034 294.556C77.292 296.012 78.452 297.995 78.7835 300.504ZM100.174 292.727V298.409H83.7503V292.727H100.174ZM87.479 286.193H95.0429V311.619C95.0429 312.318 95.1494 312.862 95.3625 313.253C95.5756 313.632 95.8715 313.898 96.2503 314.052C96.6409 314.206 97.0907 314.283 97.5997 314.283C97.9548 314.283 98.3099 314.253 98.665 314.194C99.0202 314.123 99.2924 314.07 99.4818 314.034L100.671 319.663C100.293 319.781 99.76 319.917 99.0734 320.071C98.3869 320.237 97.5523 320.337 96.5699 320.373C94.747 320.444 93.1489 320.201 91.7758 319.645C90.4146 319.089 89.3551 318.224 88.5976 317.053C87.84 315.881 87.4671 314.401 87.479 312.614V286.193ZM106.601 320V292.727H113.935V297.486H114.219C114.716 295.793 115.55 294.515 116.722 293.651C117.894 292.775 119.244 292.337 120.771 292.337C121.149 292.337 121.558 292.36 121.996 292.408C122.434 292.455 122.818 292.52 123.15 292.603V299.315C122.795 299.208 122.303 299.113 121.676 299.031C121.049 298.948 120.475 298.906 119.954 298.906C118.841 298.906 117.847 299.149 116.971 299.634C116.107 300.108 115.42 300.771 114.911 301.623C114.414 302.475 114.165 303.458 114.165 304.57V320H106.601ZM128.56 320V292.727H136.124V320H128.56ZM132.36 289.212C131.236 289.212 130.271 288.839 129.466 288.093C128.673 287.335 128.276 286.43 128.276 285.376C128.276 284.335 128.673 283.441 129.466 282.695C130.271 281.938 131.236 281.559 132.36 281.559C133.485 281.559 134.444 281.938 135.237 282.695C136.042 283.441 136.444 284.335 136.444 285.376C136.444 286.43 136.042 287.335 135.237 288.093C134.444 288.839 133.485 289.212 132.36 289.212ZM143.826 320V283.636H151.389V297.308H151.62C151.952 296.574 152.431 295.829 153.059 295.071C153.698 294.302 154.526 293.662 155.544 293.153C156.574 292.633 157.853 292.372 159.38 292.372C161.368 292.372 163.203 292.893 164.884 293.935C166.565 294.964 167.908 296.521 168.914 298.604C169.92 300.676 170.424 303.274 170.424 306.399C170.424 309.441 169.932 312.01 168.95 314.105C167.979 316.188 166.653 317.769 164.973 318.846C163.304 319.911 161.433 320.444 159.362 320.444C157.894 320.444 156.645 320.201 155.615 319.716C154.597 319.231 153.763 318.621 153.112 317.887C152.461 317.141 151.964 316.39 151.62 315.632H151.283V320H143.826ZM151.23 306.364C151.23 307.985 151.455 309.4 151.904 310.607C152.354 311.815 153.005 312.756 153.858 313.43C154.71 314.093 155.746 314.425 156.965 314.425C158.196 314.425 159.237 314.087 160.09 313.413C160.942 312.726 161.587 311.779 162.025 310.572C162.475 309.353 162.7 307.95 162.7 306.364C162.7 304.789 162.481 303.404 162.043 302.209C161.605 301.013 160.96 300.078 160.108 299.403C159.255 298.729 158.208 298.391 156.965 298.391C155.734 298.391 154.692 298.717 153.84 299.368C152.999 300.019 152.354 300.942 151.904 302.138C151.455 303.333 151.23 304.742 151.23 306.364ZM194.46 308.388V292.727H202.024V320H194.762V315.046H194.478C193.862 316.644 192.838 317.929 191.406 318.899C189.986 319.87 188.251 320.355 186.204 320.355C184.381 320.355 182.777 319.941 181.392 319.112C180.007 318.284 178.924 317.106 178.142 315.579C177.373 314.052 176.982 312.223 176.971 310.092V292.727H184.535V308.743C184.546 310.353 184.978 311.625 185.831 312.56C186.683 313.496 187.825 313.963 189.258 313.963C190.169 313.963 191.021 313.756 191.814 313.342C192.607 312.915 193.247 312.288 193.732 311.46C194.229 310.631 194.472 309.607 194.46 308.388ZM224.081 292.727V298.409H207.657V292.727H224.081ZM211.385 286.193H218.949V311.619C218.949 312.318 219.056 312.862 219.269 313.253C219.482 313.632 219.778 313.898 220.157 314.052C220.547 314.206 220.997 314.283 221.506 314.283C221.861 314.283 222.216 314.253 222.571 314.194C222.926 314.123 223.199 314.07 223.388 314.034L224.578 319.663C224.199 319.781 223.666 319.917 222.98 320.071C222.293 320.237 221.459 320.337 220.476 320.373C218.653 320.444 217.055 320.201 215.682 319.645C214.321 319.089 213.261 318.224 212.504 317.053C211.746 315.881 211.373 314.401 211.385 312.614V286.193ZM230.508 320V292.727H238.072V320H230.508ZM234.307 289.212C233.183 289.212 232.218 288.839 231.413 288.093C230.62 287.335 230.224 286.43 230.224 285.376C230.224 284.335 230.62 283.441 231.413 282.695C232.218 281.938 233.183 281.559 234.307 281.559C235.432 281.559 236.391 281.938 237.184 282.695C237.989 283.441 238.391 284.335 238.391 285.376C238.391 286.43 237.989 287.335 237.184 288.093C236.391 288.839 235.432 289.212 234.307 289.212ZM257.953 320.533C255.195 320.533 252.81 319.947 250.798 318.775C248.797 317.591 247.252 315.946 246.163 313.839C245.074 311.72 244.53 309.264 244.53 306.47C244.53 303.653 245.074 301.191 246.163 299.084C247.252 296.965 248.797 295.32 250.798 294.148C252.81 292.964 255.195 292.372 257.953 292.372C260.711 292.372 263.091 292.964 265.091 294.148C267.103 295.32 268.654 296.965 269.743 299.084C270.832 301.191 271.377 303.653 271.377 306.47C271.377 309.264 270.832 311.72 269.743 313.839C268.654 315.946 267.103 317.591 265.091 318.775C263.091 319.947 260.711 320.533 257.953 320.533ZM257.989 314.673C259.243 314.673 260.291 314.318 261.131 313.608C261.972 312.886 262.605 311.903 263.031 310.661C263.469 309.418 263.688 308.003 263.688 306.417C263.688 304.831 263.469 303.416 263.031 302.173C262.605 300.93 261.972 299.948 261.131 299.226C260.291 298.504 259.243 298.143 257.989 298.143C256.722 298.143 255.657 298.504 254.793 299.226C253.94 299.948 253.295 300.93 252.857 302.173C252.431 303.416 252.218 304.831 252.218 306.417C252.218 308.003 252.431 309.418 252.857 310.661C253.295 311.903 253.94 312.886 254.793 313.608C255.657 314.318 256.722 314.673 257.989 314.673ZM285.359 304.233V320H277.795V292.727H285.004V297.539H285.323C285.927 295.953 286.939 294.698 288.359 293.775C289.78 292.84 291.502 292.372 293.526 292.372C295.42 292.372 297.072 292.786 298.48 293.615C299.889 294.444 300.984 295.627 301.765 297.166C302.546 298.693 302.937 300.516 302.937 302.635V320H295.373V303.984C295.385 302.315 294.959 301.013 294.095 300.078C293.23 299.131 292.041 298.658 290.526 298.658C289.508 298.658 288.608 298.877 287.827 299.315C287.057 299.753 286.454 300.392 286.016 301.232C285.59 302.061 285.371 303.061 285.359 304.233ZM345.026 292.727C344.825 290.703 343.931 289.093 342.345 287.898C340.759 286.702 338.764 286.104 336.361 286.104C334.669 286.104 333.177 286.394 331.887 286.974C330.608 287.554 329.602 288.359 328.868 289.389C328.146 290.407 327.785 291.567 327.785 292.869C327.785 293.828 327.992 294.669 328.407 295.391C328.821 296.113 329.377 296.734 330.076 297.255C330.786 297.764 331.567 298.202 332.419 298.569C333.284 298.936 334.154 299.244 335.03 299.492L338.865 300.593C340.025 300.913 341.185 301.321 342.345 301.818C343.505 302.315 344.564 302.943 345.523 303.7C346.494 304.446 347.269 305.363 347.849 306.452C348.441 307.53 348.737 308.826 348.737 310.341C348.737 312.282 348.234 314.028 347.228 315.579C346.222 317.129 344.777 318.361 342.895 319.272C341.013 320.172 338.758 320.621 336.13 320.621C333.656 320.621 331.508 320.213 329.685 319.396C327.862 318.568 326.43 317.425 325.388 315.969C324.347 314.513 323.761 312.827 323.63 310.909H327.04C327.158 312.341 327.631 313.555 328.46 314.549C329.289 315.543 330.366 316.301 331.691 316.822C333.017 317.331 334.497 317.585 336.13 317.585C337.941 317.585 339.551 317.283 340.96 316.68C342.38 316.064 343.493 315.212 344.298 314.123C345.115 313.022 345.523 311.744 345.523 310.288C345.523 309.057 345.204 308.027 344.564 307.198C343.925 306.358 343.031 305.653 341.883 305.085C340.747 304.517 339.427 304.014 337.924 303.576L333.574 302.298C330.721 301.445 328.507 300.268 326.933 298.764C325.359 297.261 324.571 295.343 324.571 293.011C324.571 291.058 325.092 289.342 326.134 287.862C327.187 286.371 328.608 285.211 330.395 284.382C332.195 283.542 334.213 283.121 336.45 283.121C338.711 283.121 340.711 283.536 342.451 284.364C344.191 285.193 345.571 286.335 346.589 287.791C347.618 289.235 348.169 290.881 348.24 292.727H345.026ZM359.772 330.227C359.144 330.227 358.558 330.168 358.014 330.05C357.469 329.931 357.037 329.801 356.718 329.659L357.57 326.871C358.647 327.203 359.606 327.321 360.446 327.227C361.287 327.144 362.033 326.765 362.684 326.09C363.335 325.427 363.915 324.409 364.424 323.036L365.418 320.266L355.386 292.727H358.813L366.91 315.827H367.158L375.255 292.727H378.682L367.14 324.315C366.655 325.629 366.057 326.723 365.347 327.599C364.637 328.487 363.814 329.144 362.879 329.57C361.956 330.008 360.92 330.227 359.772 330.227ZM404.689 298.711L401.795 299.528C401.511 298.711 401.108 297.971 400.587 297.308C400.066 296.645 399.386 296.119 398.545 295.728C397.717 295.337 396.687 295.142 395.456 295.142C393.609 295.142 392.094 295.58 390.91 296.456C389.727 297.332 389.135 298.462 389.135 299.847C389.135 301.019 389.537 301.972 390.342 302.706C391.159 303.428 392.414 304.002 394.106 304.428L398.226 305.44C400.51 305.997 402.221 306.879 403.357 308.086C404.505 309.293 405.079 310.808 405.079 312.631C405.079 314.17 404.653 315.537 403.801 316.733C402.949 317.929 401.759 318.87 400.232 319.556C398.717 320.231 396.959 320.568 394.959 320.568C392.295 320.568 390.1 319.97 388.371 318.775C386.643 317.567 385.536 315.827 385.051 313.555L388.087 312.809C388.478 314.431 389.241 315.656 390.378 316.484C391.526 317.313 393.035 317.727 394.905 317.727C397.001 317.727 398.676 317.26 399.93 316.325C401.185 315.378 401.812 314.194 401.812 312.773C401.812 311.673 401.445 310.749 400.712 310.004C399.978 309.246 398.865 308.69 397.373 308.335L392.917 307.269C390.549 306.701 388.797 305.801 387.661 304.57C386.525 303.339 385.957 301.812 385.957 299.989C385.957 298.486 386.365 297.166 387.182 296.03C387.998 294.882 389.123 293.982 390.555 293.331C391.988 292.68 393.621 292.354 395.456 292.354C397.954 292.354 399.948 292.923 401.44 294.059C402.943 295.183 404.026 296.734 404.689 298.711ZM424.242 292.727V295.479H411.227V292.727H424.242ZM415.293 286.193H418.471V312.88C418.471 314.016 418.667 314.91 419.057 315.561C419.448 316.2 419.957 316.656 420.584 316.928C421.212 317.189 421.88 317.319 422.591 317.319C423.005 317.319 423.36 317.295 423.656 317.248C423.952 317.189 424.212 317.129 424.437 317.07L425.112 319.929C424.804 320.047 424.425 320.154 423.976 320.249C423.526 320.355 422.969 320.408 422.307 320.408C421.147 320.408 420.028 320.154 418.951 319.645C417.885 319.136 417.009 318.378 416.323 317.372C415.636 316.366 415.293 315.117 415.293 313.626V286.193ZM443.653 320.568C441.108 320.568 438.906 319.976 437.048 318.793C435.189 317.597 433.751 315.946 432.733 313.839C431.727 311.72 431.224 309.281 431.224 306.523C431.224 303.777 431.727 301.339 432.733 299.208C433.751 297.066 435.154 295.391 436.941 294.183C438.741 292.964 440.818 292.354 443.174 292.354C444.653 292.354 446.08 292.627 447.453 293.171C448.826 293.704 450.057 294.527 451.146 295.639C452.247 296.74 453.117 298.131 453.756 299.812C454.395 301.481 454.715 303.458 454.715 305.742V307.305H433.408V304.517H451.483C451.483 302.765 451.128 301.191 450.418 299.794C449.719 298.385 448.743 297.273 447.488 296.456C446.245 295.639 444.807 295.231 443.174 295.231C441.445 295.231 439.924 295.692 438.61 296.616C437.296 297.539 436.267 298.758 435.521 300.273C434.787 301.789 434.414 303.446 434.402 305.245V306.914C434.402 309.08 434.775 310.974 435.521 312.596C436.278 314.206 437.35 315.455 438.735 316.342C440.12 317.23 441.759 317.674 443.653 317.674C444.943 317.674 446.074 317.473 447.044 317.07C448.027 316.668 448.849 316.129 449.512 315.455C450.187 314.768 450.696 314.016 451.039 313.2L454.04 314.176C453.626 315.324 452.945 316.384 451.998 317.354C451.063 318.325 449.891 319.106 448.483 319.698C447.086 320.278 445.476 320.568 443.653 320.568ZM463.179 320V292.727H466.251V296.918H466.535C467.08 295.509 467.985 294.402 469.252 293.597C470.53 292.781 472.063 292.372 473.851 292.372C475.733 292.372 477.277 292.816 478.485 293.704C479.704 294.58 480.616 295.787 481.219 297.326H481.45C482.066 295.811 483.066 294.609 484.451 293.722C485.848 292.822 487.54 292.372 489.529 292.372C492.062 292.372 494.062 293.171 495.53 294.769C496.998 296.355 497.732 298.675 497.732 301.729V320H494.571V301.729C494.571 299.575 494.021 297.959 492.92 296.882C491.819 295.805 490.369 295.266 488.57 295.266C486.487 295.266 484.883 295.906 483.758 297.184C482.634 298.462 482.071 300.084 482.071 302.049V320H478.84V301.445C478.84 299.599 478.325 298.107 477.295 296.971C476.265 295.835 474.815 295.266 472.945 295.266C471.69 295.266 470.56 295.574 469.554 296.19C468.559 296.805 467.772 297.663 467.192 298.764C466.624 299.853 466.34 301.108 466.34 302.528V320H463.179ZM141.604 381L133.366 353.727H136.704L143.167 376.224H143.398L149.843 353.727H153.199L159.591 376.17H159.839L166.302 353.727H169.64L161.402 381H158.135L151.672 358.646H151.334L144.871 381H141.604ZM186.956 381.568C184.601 381.568 182.517 380.97 180.706 379.775C178.907 378.579 177.498 376.928 176.48 374.821C175.462 372.702 174.953 370.258 174.953 367.488C174.953 364.694 175.462 362.238 176.48 360.119C177.498 357.989 178.907 356.331 180.706 355.148C182.517 353.952 184.601 353.354 186.956 353.354C189.312 353.354 191.389 353.952 193.189 355.148C194.988 356.343 196.396 358 197.414 360.119C198.444 362.238 198.959 364.694 198.959 367.488C198.959 370.258 198.45 372.702 197.432 374.821C196.414 376.928 195 378.579 193.189 379.775C191.389 380.97 189.312 381.568 186.956 381.568ZM186.956 378.674C188.85 378.674 190.454 378.165 191.768 377.147C193.082 376.129 194.076 374.774 194.751 373.081C195.438 371.388 195.781 369.524 195.781 367.488C195.781 365.452 195.438 363.582 194.751 361.877C194.076 360.173 193.082 358.805 191.768 357.776C190.454 356.746 188.85 356.231 186.956 356.231C185.074 356.231 183.47 356.746 182.145 357.776C180.831 358.805 179.83 360.173 179.144 361.877C178.469 363.582 178.132 365.452 178.132 367.488C178.132 369.524 178.469 371.388 179.144 373.081C179.83 374.774 180.831 376.129 182.145 377.147C183.458 378.165 185.062 378.674 186.956 378.674ZM207.397 381V353.727H210.469V357.918H210.7C211.244 356.545 212.191 355.438 213.541 354.597C214.902 353.745 216.441 353.319 218.157 353.319C218.418 353.319 218.708 353.325 219.027 353.337C219.347 353.348 219.613 353.36 219.826 353.372V356.586C219.684 356.562 219.436 356.527 219.08 356.479C218.725 356.432 218.341 356.408 217.926 356.408C216.506 356.408 215.239 356.71 214.127 357.314C213.026 357.906 212.156 358.728 211.517 359.782C210.877 360.835 210.558 362.037 210.558 363.386V381H207.397ZM229.596 370.702L229.56 366.565H230.271L243.055 353.727H247.05L234.425 366.369L234.141 366.423L229.596 370.702ZM226.719 381V344.636H229.88V381H226.719ZM243.712 381L232.632 366.991L234.905 364.807L247.76 381H243.712ZM272.813 359.711L269.919 360.528C269.635 359.711 269.232 358.971 268.711 358.308C268.19 357.645 267.51 357.119 266.669 356.728C265.841 356.337 264.811 356.142 263.58 356.142C261.733 356.142 260.218 356.58 259.034 357.456C257.851 358.332 257.259 359.462 257.259 360.847C257.259 362.019 257.661 362.972 258.466 363.706C259.283 364.428 260.538 365.002 262.23 365.428L266.35 366.44C268.634 366.997 270.345 367.879 271.481 369.086C272.629 370.293 273.203 371.808 273.203 373.631C273.203 375.17 272.777 376.537 271.925 377.733C271.073 378.929 269.883 379.87 268.356 380.556C266.841 381.231 265.083 381.568 263.083 381.568C260.419 381.568 258.224 380.97 256.495 379.775C254.767 378.567 253.66 376.827 253.175 374.555L256.211 373.809C256.602 375.431 257.365 376.656 258.502 377.484C259.65 378.313 261.159 378.727 263.029 378.727C265.125 378.727 266.8 378.26 268.054 377.325C269.309 376.378 269.936 375.194 269.936 373.773C269.936 372.673 269.569 371.749 268.836 371.004C268.102 370.246 266.989 369.69 265.498 369.335L261.041 368.269C258.673 367.701 256.922 366.801 255.785 365.57C254.649 364.339 254.081 362.812 254.081 360.989C254.081 359.486 254.489 358.166 255.306 357.03C256.123 355.882 257.247 354.982 258.679 354.331C260.112 353.68 261.745 353.354 263.58 353.354C266.078 353.354 268.072 353.923 269.564 355.059C271.067 356.183 272.15 357.734 272.813 359.711ZM284.784 363.955V381H281.624V344.636H284.784V358.006H285.068C285.708 356.598 286.696 355.473 288.034 354.633C289.383 353.792 291.088 353.372 293.147 353.372C294.994 353.372 296.615 353.751 298.012 354.509C299.409 355.266 300.498 356.385 301.279 357.864C302.061 359.344 302.451 361.167 302.451 363.333V381H299.273V363.528C299.273 361.279 298.646 359.51 297.391 358.219C296.148 356.917 294.467 356.266 292.348 356.266C290.892 356.266 289.596 356.574 288.46 357.19C287.323 357.805 286.424 358.693 285.761 359.853C285.11 361.001 284.784 362.368 284.784 363.955ZM322.874 381.568C320.519 381.568 318.435 380.97 316.624 379.775C314.825 378.579 313.416 376.928 312.398 374.821C311.38 372.702 310.871 370.258 310.871 367.488C310.871 364.694 311.38 362.238 312.398 360.119C313.416 357.989 314.825 356.331 316.624 355.148C318.435 353.952 320.519 353.354 322.874 353.354C325.23 353.354 327.307 353.952 329.107 355.148C330.906 356.343 332.314 358 333.332 360.119C334.362 362.238 334.877 364.694 334.877 367.488C334.877 370.258 334.368 372.702 333.35 374.821C332.332 376.928 330.918 378.579 329.107 379.775C327.307 380.97 325.23 381.568 322.874 381.568ZM322.874 378.674C324.768 378.674 326.372 378.165 327.686 377.147C329 376.129 329.994 374.774 330.669 373.081C331.356 371.388 331.699 369.524 331.699 367.488C331.699 365.452 331.356 363.582 330.669 361.877C329.994 360.173 329 358.805 327.686 357.776C326.372 356.746 324.768 356.231 322.874 356.231C320.992 356.231 319.388 356.746 318.062 357.776C316.749 358.805 315.748 360.173 315.062 361.877C314.387 363.582 314.05 365.452 314.05 367.488C314.05 369.524 314.387 371.388 315.062 373.081C315.748 374.774 316.749 376.129 318.062 377.147C319.376 378.165 320.98 378.674 322.874 378.674ZM343.315 391.227V353.727H346.387V358.93H346.76C347.139 358.113 347.659 357.278 348.322 356.426C348.985 355.562 349.861 354.834 350.95 354.242C352.051 353.65 353.436 353.354 355.105 353.354C357.354 353.354 359.319 353.946 361 355.13C362.693 356.302 364.006 357.947 364.942 360.066C365.889 362.173 366.362 364.629 366.362 367.435C366.362 370.252 365.889 372.72 364.942 374.839C364.006 376.958 362.693 378.609 361 379.793C359.319 380.976 357.366 381.568 355.14 381.568C353.495 381.568 352.116 381.272 351.003 380.68C349.903 380.089 349.009 379.361 348.322 378.496C347.648 377.621 347.127 376.768 346.76 375.94H346.476V391.227H343.315ZM346.44 367.381C346.44 369.583 346.766 371.536 347.417 373.241C348.08 374.933 349.027 376.265 350.258 377.236C351.501 378.195 353.004 378.674 354.768 378.674C356.579 378.674 358.106 378.177 359.349 377.183C360.603 376.176 361.556 374.821 362.207 373.116C362.87 371.412 363.202 369.5 363.202 367.381C363.202 365.286 362.876 363.398 362.225 361.717C361.586 360.036 360.639 358.705 359.384 357.722C358.129 356.728 356.59 356.231 354.768 356.231C352.992 356.231 351.483 356.71 350.24 357.669C348.997 358.616 348.05 359.93 347.399 361.611C346.76 363.28 346.44 365.203 346.44 367.381Z" fill="white"/>
</svg>
